<svg xmlns="http://www.w3.org/2000/svg" viewBox="0 0 1600 900" role="img" aria-labelledby="title desc">
  <title id="title">Miami beaches hero</title>
  <desc id="desc">Stylized Miami shoreline with skyline, palms, and beach colors.</desc>
  <defs>
    <linearGradient id="sky" x1="0" y1="0" x2="1" y2="1">
      <stop offset="0%" stop-color="#082f49"/>
      <stop offset="45%" stop-color="#0ea5e9"/>
      <stop offset="100%" stop-color="#fde68a"/>
    </linearGradient>
  </defs>
  <rect width="1600" height="900" fill="url(#sky)"/>
  <rect x="0" y="500" width="1600" height="180" fill="#38bdf8"/>
  <rect x="0" y="680" width="1600" height="220" fill="#f3d9a4"/>
  <rect x="250" y="250" width="90" height="250" fill="#e2e8f0" opacity=".85"/>
  <rect x="370" y="180" width="120" height="320" fill="#f8fafc" opacity=".88"/>
  <rect x="535" y="230" width="110" height="270" fill="#cbd5e1" opacity=".85"/>
  <rect x="690" y="150" width="150" height="350" fill="#e5e7eb" opacity=".9"/>
  <rect x="885" y="205" width="120" height="295" fill="#dbeafe" opacity=".84"/>
  <rect x="1040" y="260" width="100" height="240" fill="#cbd5e1" opacity=".8"/>
  <g fill="#16a34a">
    <rect x="138" y="360" width="18" height="215" rx="9"/>
    <rect x="1310" y="350" width="18" height="235" rx="9"/>
  </g>
  <g fill="#22c55e">
    <path d="M147 370c-62-37-64-110 18-154-9 47 26 102 65 128-35 3-60 8-83 26Z"/>
    <path d="M147 369c57-32 122-8 143 68-48-10-100 3-146 26 6-35 7-60 3-94Z"/>
    <path d="M1319 360c-56-39-58-107 19-145-4 49 23 90 58 117-35 3-56 11-77 28Z"/>
    <path d="M1319 360c53-28 115-2 133 63-42-8-92 7-136 30 7-30 8-55 3-93Z"/>
  </g>
  <text x="130" y="130" fill="#ffffff" font-size="74" font-family="Arial, sans-serif" font-weight="700">Miami Beaches</text>
  <text x="130" y="185" fill="#e0f2fe" font-size="28" font-family="Arial, sans-serif">South Beach, quieter sand, and beach-day activity planning</text>
</svg>
