<svg xmlns="http://www.w3.org/2000/svg" viewBox="0 0 800 600">
  <rect width="800" height="600" fill="#291929"/>
  <circle cx="600" cy="130" r="48" fill="#ffd58a"/>
  <path d="M420 170c-42 0-68 38-68 82 0 30 12 62 37 90 20 22 29 44 29 67 0 36-20 63-55 63-20 0-40-8-57-24l-20 28c22 21 51 34 84 34 68 0 111-49 111-117 0-44-18-78-48-111-18-20-28-41-28-61 0-16 8-25 23-25 13 0 26 6 39 18l18-27c-18-18-41-27-65-27Zm119 38v178h42V208h-42Zm0 220v42h42v-42h-42Z" fill="#f8d7a1"/>
  <rect x="0" y="470" width="800" height="130" fill="#180f18"/>
</svg>
